<?xml version="1.0" encoding="UTF-8" standalone="no"?>
<!-- Created with Inkscape (http://www.inkscape.org/) -->

<svg
   width="210mm"
   height="297mm"
   viewBox="0 0 210 297"
   version="1.1"
   id="svg5"
   inkscape:version="1.2.1 (9c6d41e410, 2022-07-14)"
   sodipodi:docname="logo.svg"
   xmlns:inkscape="http://www.inkscape.org/namespaces/inkscape"
   xmlns:sodipodi="http://sodipodi.sourceforge.net/DTD/sodipodi-0.dtd"
   xmlns="http://www.w3.org/2000/svg"
   xmlns:svg="http://www.w3.org/2000/svg">
  <sodipodi:namedview
     id="namedview7"
     pagecolor="#ffffff"
     bordercolor="#000000"
     borderopacity="0.25"
     inkscape:showpageshadow="2"
     inkscape:pageopacity="0.0"
     inkscape:pagecheckerboard="0"
     inkscape:deskcolor="#d1d1d1"
     inkscape:document-units="mm"
     showgrid="false"
     inkscape:zoom="0.5946522"
     inkscape:cx="151.34897"
     inkscape:cy="258.13408"
     inkscape:window-width="1368"
     inkscape:window-height="842"
     inkscape:window-x="-6"
     inkscape:window-y="-6"
     inkscape:window-maximized="1"
     inkscape:current-layer="layer1" />
  <defs
     id="defs2" />
  <g
     inkscape:label="Layer 1"
     inkscape:groupmode="layer"
     id="layer1">
    <rect
       style="opacity:1;fill:#0b2228;fill-opacity:1;stroke-width:1;stroke-linecap:round;stroke-linejoin:round"
       id="rect1118"
       width="70.439095"
       height="10.000489"
       x="75.66114"
       y="204.99167"
       rx="8.7411137"
       ry="6.603622"
       inkscape:export-filename="images\logo.png"
       inkscape:export-xdpi="96"
       inkscape:export-ydpi="96" />
    <path
       id="rect1091-8"
       style="fill:#0b2228;fill-opacity:1;stroke-width:1;stroke-linecap:round;stroke-linejoin:round"
       d="m 54.621736,134.99188 c -4.84257,0 -8.74107,3.92728 -8.74107,8.80515 v 62.38999 c 0,4.87787 3.8985,8.80514 8.74107,8.80514 h 32.5174 c 4.84257,0 8.74106,-3.92727 8.74106,-8.80514 v -1.19476 H 64.621647 c -4.84258,0 -8.741071,-2.94533 -8.741071,-6.60373 v -46.79301 c 0,-3.65841 3.898491,-6.60322 8.741071,-6.60322 h 31.258549 v -1.19527 c 0,-4.87787 -3.89849,-8.80515 -8.74106,-8.80515 z" />
    <path
       id="rect1009"
       style="opacity:1;fill:#37abc8;stroke-linecap:round;stroke-linejoin:round"
       d="m 114.67555,164.99204 c -4.70605,0 -8.49508,3.92679 -8.49508,8.80463 v 62.39051 c 0,4.87788 3.78903,8.80463 8.49508,8.80463 h 1.50534 v -8.80463 -1.8371 -10.55336 c 0,-4.87786 3.78851,-8.80514 8.49457,-8.80514 h 13.01058 c 4.70606,0 8.49457,3.92728 8.49457,8.80514 v 10.53269 c 2e-5,0.007 5.2e-4,0.0137 5.2e-4,0.0207 v 10.64173 h 1.50482 c 4.70605,0 8.49457,-3.92675 8.49457,-8.80463 V 173.7967 c 0,-4.87784 -3.78852,-8.80463 -8.49457,-8.80463 z m 9.99991,9.99991 h 13.01058 c 4.70605,0 8.49457,3.92678 8.49457,8.80463 v 12.39046 c 0,4.87785 -3.78852,8.80463 -8.49457,8.80463 h -13.01058 c -4.70605,0 -8.49457,-3.92678 -8.49457,-8.80463 v -12.39046 c 0,-4.87785 3.78852,-8.80463 8.49457,-8.80463 z" />
    <path
       id="path1029"
       style="opacity:1;fill:#216778;stroke-linecap:round;stroke-linejoin:round"
       d="m 127.38562,154.99162 c 4.70605,0 8.49509,3.9268 8.49509,8.80463 v 1.19579 h -18.47484 c -0.007,-1e-5 -0.0134,-5.1e-4 -0.0201,-5.1e-4 h -13.01058 c -4.706051,0 -8.494567,3.92679 -8.494567,8.80463 v 12.39046 c 0,0.44695 0.03264,0.88545 0.09405,1.31413 -0.06138,0.42268 -0.09457,0.85517 -0.09457,1.29553 v 32.06936 c 0,0.007 4.97e-4,0.0137 5.17e-4,0.0207 v 3.44268 c -1e-5,0.007 -5.17e-4,0.0142 -5.17e-4,0.0212 v 10.64173 h -1.504818 c -4.706035,0 -8.494571,-3.92676 -8.494571,-8.80463 v -62.39051 c 0,-4.87784 3.788536,-8.80463 8.494571,-8.80463 z" />
    <path
       id="path1089"
       style="opacity:1;fill:#216778;stroke-linecap:round;stroke-linejoin:round"
       d="m 107.38573,144.99184 c 4.70604,0 8.49508,3.9268 8.49508,8.80463 v 1.19579 H 97.405973 c -0.0068,-10e-6 -0.0134,-5.1e-4 -0.02015,-5.1e-4 H 84.375249 c -4.706055,0 -8.494574,3.92679 -8.494574,8.80463 v 12.39046 c 0,0.44695 0.0326,0.88545 0.094,1.31413 -0.0614,0.42268 -0.0946,0.85517 -0.0946,1.29553 v 32.06936 c 0,0.007 5e-4,0.0137 5.2e-4,0.0207 v 3.44268 c -1e-5,0.007 -5.2e-4,0.0142 -5.2e-4,0.0212 v 10.64173 h -1.504821 c -4.706029,0 -8.494559,-3.92676 -8.494559,-8.80463 v -62.39051 c 0,-4.87784 3.78853,-8.80463 8.494559,-8.80463 z" />
    <rect
       style="fill:#0b2228;fill-opacity:1;stroke-width:0.362648;stroke-linecap:round;stroke-linejoin:round"
       id="rect1118-5"
       width="25.544582"
       height="3.6266556"
       x="50.045887"
       y="43.355114"
       rx="3.1699457"
       ry="2.394789"
       inkscape:export-filename="images\logo.png"
       inkscape:export-xdpi="96"
       inkscape:export-ydpi="96" />
    <path
       id="rect1091-8-1"
       style="fill:#0b2228;fill-opacity:1;stroke-width:0.362648;stroke-linecap:round;stroke-linejoin:round"
       d="m 42.415993,17.969843 c -1.756148,0 -3.16993,1.42422 -3.16993,3.193169 v 22.625593 c 0,1.768949 1.413782,3.193165 3.16993,3.193165 h 11.792363 c 1.756148,0 3.169927,-1.424216 3.169927,-3.193165 V 43.355328 H 46.042439 c -1.756152,0 -3.169931,-1.068118 -3.169931,-2.394828 V 23.991117 c 0,-1.326714 1.413779,-2.394643 3.169931,-2.394643 h 11.335844 v -0.433462 c 0,-1.768949 -1.413779,-3.193169 -3.169927,-3.193169 z" />
    <path
       id="rect1009-7"
       style="fill:#37abc8;stroke-width:0.362648;stroke-linecap:round;stroke-linejoin:round"
       d="m 64.194377,28.849336 c -1.706639,0 -3.080722,1.424042 -3.080722,3.19298 v 22.625781 c 0,1.768953 1.374083,3.19298 3.080722,3.19298 h 0.545908 v -3.19298 -0.66622 -3.827153 c 0,-1.768945 1.373895,-3.193165 3.080537,-3.193165 h 4.718258 c 1.706643,0 3.080538,1.42422 3.080538,3.193165 v 3.819657 c 7e-6,0.0026 1.88e-4,0.005 1.88e-4,0.0075 v 3.8592 h 0.54572 c 1.706639,0 3.080537,-1.424027 3.080537,-3.19298 V 32.042326 c 0,-1.768938 -1.373898,-3.19298 -3.080537,-3.19298 z m 3.626445,3.626445 h 4.718258 c 1.706639,0 3.080538,1.424038 3.080538,3.19298 v 4.493373 c 0,1.768942 -1.373899,3.19298 -3.080538,3.19298 h -4.718258 c -1.706638,0 -3.080537,-1.424038 -3.080537,-3.19298 v -4.493373 c 0,-1.768942 1.373899,-3.19298 3.080537,-3.19298 z" />
    <path
       id="path1029-5"
       style="fill:#216778;stroke-width:0.362648;stroke-linecap:round;stroke-linejoin:round"
       d="m 68.803656,25.222705 c 1.706638,0 3.080726,1.424046 3.080726,3.19298 v 0.433651 h -6.699861 c -0.0026,-4e-6 -0.0048,-1.86e-4 -0.0073,-1.86e-4 h -4.718259 c -1.706638,0 -3.080536,1.424042 -3.080536,3.192981 v 4.493372 c 0,0.162086 0.01184,0.321107 0.03411,0.476567 -0.02226,0.153284 -0.03429,0.310126 -0.03429,0.469821 v 11.629883 c 0,0.0026 1.8e-4,0.005 1.87e-4,0.0075 v 1.24848 c -4e-6,0.0026 -1.87e-4,0.0052 -1.87e-4,0.0077 v 3.8592 h -0.545719 c -1.706634,0 -3.080538,-1.424032 -3.080538,-3.192981 V 28.415888 c 0,-1.768938 1.373904,-3.19298 3.080538,-3.19298 z" />
    <path
       id="path1089-6"
       style="fill:#216778;stroke-width:0.362648;stroke-linecap:round;stroke-linejoin:round"
       d="m 61.55074,21.596307 c 1.706635,0 3.080721,1.424045 3.080721,3.192979 v 0.433651 h -6.699859 c -0.0025,-3e-6 -0.0048,-1.84e-4 -0.0073,-1.84e-4 h -4.718256 c -1.706641,0 -3.080539,1.424041 -3.080539,3.192979 v 4.493373 c 0,0.162086 0.01182,0.321107 0.03409,0.476566 -0.02227,0.153285 -0.03431,0.310126 -0.03431,0.469821 v 11.629884 c 0,0.0026 1.81e-4,0.005 1.88e-4,0.0075 v 1.248481 c -4e-6,0.0026 -1.88e-4,0.0052 -1.88e-4,0.0077 v 3.8592 h -0.545721 c -1.706631,0 -3.080532,-1.424031 -3.080532,-3.19298 V 24.78949 c 0,-1.768939 1.373901,-3.19298 3.080532,-3.19298 z" />
  </g>
</svg>
